<?xml version="1.0" encoding="utf-8" standalone="no"?>
<!DOCTYPE svg PUBLIC "-//W3C//DTD SVG 1.1//EN"
  "http://www.w3.org/Graphics/SVG/1.1/DTD/svg11.dtd">
<svg xmlns:xlink="http://www.w3.org/1999/xlink" width="671.852182pt" height="366.468532pt" viewBox="0 0 671.852182 366.468532" xmlns="http://www.w3.org/2000/svg" version="1.1">
 <metadata>
  <rdf:RDF xmlns:dc="http://purl.org/dc/elements/1.1/" xmlns:cc="http://creativecommons.org/ns#" xmlns:rdf="http://www.w3.org/1999/02/22-rdf-syntax-ns#">
   <cc:Work>
    <dc:type rdf:resource="http://purl.org/dc/dcmitype/StillImage"/>
    <dc:date>2026-08-10T10:11:53.424363</dc:date>
    <dc:format>image/svg+xml</dc:format>
    <dc:creator>
     <cc:Agent>
      <dc:title>Matplotlib v3.11.0, https://matplotlib.org/</dc:title>
     </cc:Agent>
    </dc:creator>
   </cc:Work>
  </rdf:RDF>
 </metadata>
 <defs>
  <style type="text/css">*{stroke-linejoin: round; stroke-linecap: butt}</style>
 </defs>
 <g id="figure_1">
  <g id="patch_1">
   <path d="M 0 366.468532 
L 671.852182 366.468532 
L 671.852182 0 
L 0 0 
z
" style="fill: #ffffff"/>
  </g>
  <g id="axes_1">
   <g id="patch_2">
    <path d="M 65.654687 292.861812 
L 651.554688 292.861812 
L 651.554688 37.837812 
L 65.654687 37.837812 
z
" style="fill: #ffffff"/>
   </g>
   <g id="matplotlib.axis_1">
    <g id="xtick_1">
     <g id="line2d_1">
      <path d="M 175.847119 292.861812 
L 175.847119 37.837812 
" clip-path="url(#pd6d52ce79e)" style="fill: none; stroke: #e5e7eb; stroke-width: 0.8; stroke-linecap: square"/>
     </g>
     <g id="line2d_2">
      <defs>
       <path id="m70394d49fa" d="M 0 0 
L 0 3.5 
" style="stroke: #6b7280; stroke-width: 0.8"/>
      </defs>
      <g>
       <use xlink:href="#m70394d49fa" x="175.847119" y="292.861812" style="fill: #6b7280; stroke: #6b7280; stroke-width: 0.8"/>
      </g>
     </g>
     <g id="text_1">
      <!-- −500 -->
      <g style="fill: #6b7280" transform="translate(162.113525 307.459469) scale(0.1 -0.1)">
       <defs>
        <path id="DejaVuSans-c9c" d="M 678 2272 
L 4684 2272 
L 4684 1741 
L 678 1741 
L 678 2272 
z
" transform="scale(0.015625)"/>
        <path id="DejaVuSans-18" d="M 691 4666 
L 3169 4666 
L 3169 4134 
L 1269 4134 
L 1269 2991 
Q 1406 3038 1543 3061 
Q 1681 3084 1819 3084 
Q 2600 3084 3056 2656 
Q 3513 2228 3513 1497 
Q 3513 744 3044 326 
Q 2575 -91 1722 -91 
Q 1428 -91 1123 -41 
Q 819 9 494 109 
L 494 744 
Q 775 591 1075 516 
Q 1375 441 1709 441 
Q 2250 441 2565 725 
Q 2881 1009 2881 1497 
Q 2881 1984 2565 2268 
Q 2250 2553 1709 2553 
Q 1456 2553 1204 2497 
Q 953 2441 691 2322 
L 691 4666 
z
" transform="scale(0.015625)"/>
        <path id="DejaVuSans-13" d="M 2034 4250 
Q 1547 4250 1301 3770 
Q 1056 3291 1056 2328 
Q 1056 1369 1301 889 
Q 1547 409 2034 409 
Q 2525 409 2770 889 
Q 3016 1369 3016 2328 
Q 3016 3291 2770 3770 
Q 2525 4250 2034 4250 
z
M 2034 4750 
Q 2819 4750 3233 4129 
Q 3647 3509 3647 2328 
Q 3647 1150 3233 529 
Q 2819 -91 2034 -91 
Q 1250 -91 836 529 
Q 422 1150 422 2328 
Q 422 3509 836 4129 
Q 1250 4750 2034 4750 
z
" transform="scale(0.015625)"/>
       </defs>
       <use xlink:href="#DejaVuSans-c9c"/>
       <use xlink:href="#DejaVuSans-18" transform="translate(83.796875 0)"/>
       <use xlink:href="#DejaVuSans-13" transform="translate(147.421875 0)"/>
       <use xlink:href="#DejaVuSans-13" transform="translate(211.046875 0)"/>
      </g>
     </g>
    </g>
    <g id="xtick_2">
     <g id="line2d_3">
      <path d="M 300.937857 292.861812 
L 300.937857 37.837812 
" clip-path="url(#pd6d52ce79e)" style="fill: none; stroke: #e5e7eb; stroke-width: 0.8; stroke-linecap: square"/>
     </g>
     <g id="line2d_4">
      <g>
       <use xlink:href="#m70394d49fa" x="300.937857" y="292.861812" style="fill: #6b7280; stroke: #6b7280; stroke-width: 0.8"/>
      </g>
     </g>
     <g id="text_2">
      <!-- 0 -->
      <g style="fill: #6b7280" transform="translate(297.756607 307.459469) scale(0.1 -0.1)">
       <use xlink:href="#DejaVuSans-13"/>
      </g>
     </g>
    </g>
    <g id="xtick_3">
     <g id="line2d_5">
      <path d="M 426.028595 292.861812 
L 426.028595 37.837812 
" clip-path="url(#pd6d52ce79e)" style="fill: none; stroke: #e5e7eb; stroke-width: 0.8; stroke-linecap: square"/>
     </g>
     <g id="line2d_6">
      <g>
       <use xlink:href="#m70394d49fa" x="426.028595" y="292.861812" style="fill: #6b7280; stroke: #6b7280; stroke-width: 0.8"/>
      </g>
     </g>
     <g id="text_3">
      <!-- 500 -->
      <g style="fill: #6b7280" transform="translate(416.484845 307.459469) scale(0.1 -0.1)">
       <use xlink:href="#DejaVuSans-18"/>
       <use xlink:href="#DejaVuSans-13" transform="translate(63.625 0)"/>
       <use xlink:href="#DejaVuSans-13" transform="translate(127.25 0)"/>
      </g>
     </g>
    </g>
    <g id="xtick_4">
     <g id="line2d_7">
      <path d="M 551.119334 292.861812 
L 551.119334 37.837812 
" clip-path="url(#pd6d52ce79e)" style="fill: none; stroke: #e5e7eb; stroke-width: 0.8; stroke-linecap: square"/>
     </g>
     <g id="line2d_8">
      <g>
       <use xlink:href="#m70394d49fa" x="551.119334" y="292.861812" style="fill: #6b7280; stroke: #6b7280; stroke-width: 0.8"/>
      </g>
     </g>
     <g id="text_4">
      <!-- 1000 -->
      <g style="fill: #6b7280" transform="translate(538.394334 307.459469) scale(0.1 -0.1)">
       <defs>
        <path id="DejaVuSans-14" d="M 794 531 
L 1825 531 
L 1825 4091 
L 703 3866 
L 703 4441 
L 1819 4666 
L 2450 4666 
L 2450 531 
L 3481 531 
L 3481 0 
L 794 0 
L 794 531 
z
" transform="scale(0.015625)"/>
       </defs>
       <use xlink:href="#DejaVuSans-14"/>
       <use xlink:href="#DejaVuSans-13" transform="translate(63.625 0)"/>
       <use xlink:href="#DejaVuSans-13" transform="translate(127.25 0)"/>
       <use xlink:href="#DejaVuSans-13" transform="translate(190.875 0)"/>
      </g>
     </g>
    </g>
    <g id="text_5">
     <!-- Number of paired questions -->
     <g transform="translate(288.902344 321.46025) scale(0.1 -0.1)">
      <defs>
       <path id="DejaVuSans-31" d="M 628 4666 
L 1478 4666 
L 3547 763 
L 3547 4666 
L 4159 4666 
L 4159 0 
L 3309 0 
L 1241 3903 
L 1241 0 
L 628 0 
L 628 4666 
z
" transform="scale(0.015625)"/>
       <path id="DejaVuSans-58" d="M 544 1381 
L 544 3500 
L 1119 3500 
L 1119 1403 
Q 1119 906 1312 657 
Q 1506 409 1894 409 
Q 2359 409 2629 706 
Q 2900 1003 2900 1516 
L 2900 3500 
L 3475 3500 
L 3475 0 
L 2900 0 
L 2900 538 
Q 2691 219 2414 64 
Q 2138 -91 1772 -91 
Q 1169 -91 856 284 
Q 544 659 544 1381 
z
M 1991 3584 
L 1991 3584 
z
" transform="scale(0.015625)"/>
       <path id="DejaVuSans-50" d="M 3328 2828 
Q 3544 3216 3844 3400 
Q 4144 3584 4550 3584 
Q 5097 3584 5394 3201 
Q 5691 2819 5691 2113 
L 5691 0 
L 5113 0 
L 5113 2094 
Q 5113 2597 4934 2840 
Q 4756 3084 4391 3084 
Q 3944 3084 3684 2787 
Q 3425 2491 3425 1978 
L 3425 0 
L 2847 0 
L 2847 2094 
Q 2847 2600 2669 2842 
Q 2491 3084 2119 3084 
Q 1678 3084 1418 2786 
Q 1159 2488 1159 1978 
L 1159 0 
L 581 0 
L 581 3500 
L 1159 3500 
L 1159 2956 
Q 1356 3278 1631 3431 
Q 1906 3584 2284 3584 
Q 2666 3584 2933 3390 
Q 3200 3197 3328 2828 
z
" transform="scale(0.015625)"/>
       <path id="DejaVuSans-45" d="M 3116 1747 
Q 3116 2381 2855 2742 
Q 2594 3103 2138 3103 
Q 1681 3103 1420 2742 
Q 1159 2381 1159 1747 
Q 1159 1113 1420 752 
Q 1681 391 2138 391 
Q 2594 391 2855 752 
Q 3116 1113 3116 1747 
z
M 1159 2969 
Q 1341 3281 1617 3432 
Q 1894 3584 2278 3584 
Q 2916 3584 3314 3078 
Q 3713 2572 3713 1747 
Q 3713 922 3314 415 
Q 2916 -91 2278 -91 
Q 1894 -91 1617 61 
Q 1341 213 1159 525 
L 1159 0 
L 581 0 
L 581 4863 
L 1159 4863 
L 1159 2969 
z
" transform="scale(0.015625)"/>
       <path id="DejaVuSans-48" d="M 3597 1894 
L 3597 1613 
L 953 1613 
Q 991 1019 1311 708 
Q 1631 397 2203 397 
Q 2534 397 2845 478 
Q 3156 559 3463 722 
L 3463 178 
Q 3153 47 2828 -22 
Q 2503 -91 2169 -91 
Q 1331 -91 842 396 
Q 353 884 353 1716 
Q 353 2575 817 3079 
Q 1281 3584 2069 3584 
Q 2775 3584 3186 3129 
Q 3597 2675 3597 1894 
z
M 3022 2063 
Q 3016 2534 2758 2815 
Q 2500 3097 2075 3097 
Q 1594 3097 1305 2825 
Q 1016 2553 972 2059 
L 3022 2063 
z
" transform="scale(0.015625)"/>
       <path id="DejaVuSans-55" d="M 2631 2963 
Q 2534 3019 2420 3045 
Q 2306 3072 2169 3072 
Q 1681 3072 1420 2755 
Q 1159 2438 1159 1844 
L 1159 0 
L 581 0 
L 581 3500 
L 1159 3500 
L 1159 2956 
Q 1341 3275 1631 3429 
Q 1922 3584 2338 3584 
Q 2397 3584 2469 3576 
Q 2541 3569 2628 3553 
L 2631 2963 
z
" transform="scale(0.015625)"/>
       <path id="DejaVuSans-3" transform="scale(0.015625)"/>
       <path id="DejaVuSans-52" d="M 1959 3097 
Q 1497 3097 1228 2736 
Q 959 2375 959 1747 
Q 959 1119 1226 758 
Q 1494 397 1959 397 
Q 2419 397 2687 759 
Q 2956 1122 2956 1747 
Q 2956 2369 2687 2733 
Q 2419 3097 1959 3097 
z
M 1959 3584 
Q 2709 3584 3137 3096 
Q 3566 2609 3566 1747 
Q 3566 888 3137 398 
Q 2709 -91 1959 -91 
Q 1206 -91 779 398 
Q 353 888 353 1747 
Q 353 2609 779 3096 
Q 1206 3584 1959 3584 
z
" transform="scale(0.015625)"/>
       <path id="DejaVuSans-49" d="M 2375 4863 
L 2375 4384 
L 1825 4384 
Q 1516 4384 1395 4259 
Q 1275 4134 1275 3809 
L 1275 3500 
L 2222 3500 
L 2222 3053 
L 1275 3053 
L 1275 0 
L 697 0 
L 697 3053 
L 147 3053 
L 147 3500 
L 697 3500 
L 697 3744 
Q 697 4328 969 4595 
Q 1241 4863 1831 4863 
L 2375 4863 
z
" transform="scale(0.015625)"/>
       <path id="DejaVuSans-53" d="M 1159 525 
L 1159 -1331 
L 581 -1331 
L 581 3500 
L 1159 3500 
L 1159 2969 
Q 1341 3281 1617 3432 
Q 1894 3584 2278 3584 
Q 2916 3584 3314 3078 
Q 3713 2572 3713 1747 
Q 3713 922 3314 415 
Q 2916 -91 2278 -91 
Q 1894 -91 1617 61 
Q 1341 213 1159 525 
z
M 3116 1747 
Q 3116 2381 2855 2742 
Q 2594 3103 2138 3103 
Q 1681 3103 1420 2742 
Q 1159 2381 1159 1747 
Q 1159 1113 1420 752 
Q 1681 391 2138 391 
Q 2594 391 2855 752 
Q 3116 1113 3116 1747 
z
" transform="scale(0.015625)"/>
       <path id="DejaVuSans-44" d="M 2194 1759 
Q 1497 1759 1228 1600 
Q 959 1441 959 1056 
Q 959 750 1161 570 
Q 1363 391 1709 391 
Q 2188 391 2477 730 
Q 2766 1069 2766 1631 
L 2766 1759 
L 2194 1759 
z
M 3341 1997 
L 3341 0 
L 2766 0 
L 2766 531 
Q 2569 213 2275 61 
Q 1981 -91 1556 -91 
Q 1019 -91 701 211 
Q 384 513 384 1019 
Q 384 1609 779 1909 
Q 1175 2209 1959 2209 
L 2766 2209 
L 2766 2266 
Q 2766 2663 2505 2880 
Q 2244 3097 1772 3097 
Q 1472 3097 1187 3025 
Q 903 2953 641 2809 
L 641 3341 
Q 956 3463 1253 3523 
Q 1550 3584 1831 3584 
Q 2591 3584 2966 3190 
Q 3341 2797 3341 1997 
z
" transform="scale(0.015625)"/>
       <path id="DejaVuSans-4c" d="M 603 3500 
L 1178 3500 
L 1178 0 
L 603 0 
L 603 3500 
z
M 603 4863 
L 1178 4863 
L 1178 4134 
L 603 4134 
L 603 4863 
z
" transform="scale(0.015625)"/>
       <path id="DejaVuSans-47" d="M 2906 2969 
L 2906 4863 
L 3481 4863 
L 3481 0 
L 2906 0 
L 2906 525 
Q 2725 213 2448 61 
Q 2172 -91 1784 -91 
Q 1150 -91 751 415 
Q 353 922 353 1747 
Q 353 2572 751 3078 
Q 1150 3584 1784 3584 
Q 2172 3584 2448 3432 
Q 2725 3281 2906 2969 
z
M 947 1747 
Q 947 1113 1208 752 
Q 1469 391 1925 391 
Q 2381 391 2643 752 
Q 2906 1113 2906 1747 
Q 2906 2381 2643 2742 
Q 2381 3103 1925 3103 
Q 1469 3103 1208 2742 
Q 947 2381 947 1747 
z
" transform="scale(0.015625)"/>
       <path id="DejaVuSans-54" d="M 947 1747 
Q 947 1113 1208 752 
Q 1469 391 1925 391 
Q 2381 391 2643 752 
Q 2906 1113 2906 1747 
Q 2906 2381 2643 2742 
Q 2381 3103 1925 3103 
Q 1469 3103 1208 2742 
Q 947 2381 947 1747 
z
M 2906 525 
Q 2725 213 2448 61 
Q 2172 -91 1784 -91 
Q 1150 -91 751 415 
Q 353 922 353 1747 
Q 353 2572 751 3078 
Q 1150 3584 1784 3584 
Q 2172 3584 2448 3432 
Q 2725 3281 2906 2969 
L 2906 3500 
L 3481 3500 
L 3481 -1331 
L 2906 -1331 
L 2906 525 
z
" transform="scale(0.015625)"/>
       <path id="DejaVuSans-56" d="M 2834 3397 
L 2834 2853 
Q 2591 2978 2328 3040 
Q 2066 3103 1784 3103 
Q 1356 3103 1142 2972 
Q 928 2841 928 2578 
Q 928 2378 1081 2264 
Q 1234 2150 1697 2047 
L 1894 2003 
Q 2506 1872 2764 1633 
Q 3022 1394 3022 966 
Q 3022 478 2636 193 
Q 2250 -91 1575 -91 
Q 1294 -91 989 -36 
Q 684 19 347 128 
L 347 722 
Q 666 556 975 473 
Q 1284 391 1588 391 
Q 1994 391 2212 530 
Q 2431 669 2431 922 
Q 2431 1156 2273 1281 
Q 2116 1406 1581 1522 
L 1381 1569 
Q 847 1681 609 1914 
Q 372 2147 372 2553 
Q 372 3047 722 3315 
Q 1072 3584 1716 3584 
Q 2034 3584 2315 3537 
Q 2597 3491 2834 3397 
z
" transform="scale(0.015625)"/>
       <path id="DejaVuSans-57" d="M 1172 4494 
L 1172 3500 
L 2356 3500 
L 2356 3053 
L 1172 3053 
L 1172 1153 
Q 1172 725 1289 603 
Q 1406 481 1766 481 
L 2356 481 
L 2356 0 
L 1766 0 
Q 1100 0 847 248 
Q 594 497 594 1153 
L 594 3053 
L 172 3053 
L 172 3500 
L 594 3500 
L 594 4494 
L 1172 4494 
z
" transform="scale(0.015625)"/>
       <path id="DejaVuSans-51" d="M 3513 2113 
L 3513 0 
L 2938 0 
L 2938 2094 
Q 2938 2591 2744 2837 
Q 2550 3084 2163 3084 
Q 1697 3084 1428 2787 
Q 1159 2491 1159 1978 
L 1159 0 
L 581 0 
L 581 3500 
L 1159 3500 
L 1159 2956 
Q 1366 3272 1645 3428 
Q 1925 3584 2291 3584 
Q 2894 3584 3203 3211 
Q 3513 2838 3513 2113 
z
" transform="scale(0.015625)"/>
      </defs>
      <use xlink:href="#DejaVuSans-31"/>
      <use xlink:href="#DejaVuSans-58" transform="translate(74.8125 0)"/>
      <use xlink:href="#DejaVuSans-50" transform="translate(138.1875 0)"/>
      <use xlink:href="#DejaVuSans-45" transform="translate(235.59375 0)"/>
      <use xlink:href="#DejaVuSans-48" transform="translate(299.078125 0)"/>
      <use xlink:href="#DejaVuSans-55" transform="translate(360.609375 0)"/>
      <use xlink:href="#DejaVuSans-3" transform="translate(401.71875 0)"/>
      <use xlink:href="#DejaVuSans-52" transform="translate(433.5 0)"/>
      <use xlink:href="#DejaVuSans-49" transform="translate(494.6875 0)"/>
      <use xlink:href="#DejaVuSans-3" transform="translate(529.890625 0)"/>
      <use xlink:href="#DejaVuSans-53" transform="translate(561.671875 0)"/>
      <use xlink:href="#DejaVuSans-44" transform="translate(625.15625 0)"/>
      <use xlink:href="#DejaVuSans-4c" transform="translate(686.4375 0)"/>
      <use xlink:href="#DejaVuSans-55" transform="translate(714.21875 0)"/>
      <use xlink:href="#DejaVuSans-48" transform="translate(753.125 0)"/>
      <use xlink:href="#DejaVuSans-47" transform="translate(814.65625 0)"/>
      <use xlink:href="#DejaVuSans-3" transform="translate(878.140625 0)"/>
      <use xlink:href="#DejaVuSans-54" transform="translate(909.921875 0)"/>
      <use xlink:href="#DejaVuSans-58" transform="translate(973.40625 0)"/>
      <use xlink:href="#DejaVuSans-48" transform="translate(1036.78125 0)"/>
      <use xlink:href="#DejaVuSans-56" transform="translate(1098.3125 0)"/>
      <use xlink:href="#DejaVuSans-57" transform="translate(1150.40625 0)"/>
      <use xlink:href="#DejaVuSans-4c" transform="translate(1189.609375 0)"/>
      <use xlink:href="#DejaVuSans-52" transform="translate(1217.390625 0)"/>
      <use xlink:href="#DejaVuSans-51" transform="translate(1278.578125 0)"/>
      <use xlink:href="#DejaVuSans-56" transform="translate(1341.953125 0)"/>
     </g>
    </g>
   </g>
   <g id="matplotlib.axis_2">
    <g id="ytick_1">
     <g id="line2d_9"/>
     <g id="text_6">
      <!-- Answer EM -->
      <g style="fill: #111827" transform="translate(7.2 111.768241) scale(0.1 -0.1)">
       <defs>
        <path id="DejaVuSans-24" d="M 2188 4044 
L 1331 1722 
L 3047 1722 
L 2188 4044 
z
M 1831 4666 
L 2547 4666 
L 4325 0 
L 3669 0 
L 3244 1197 
L 1141 1197 
L 716 0 
L 50 0 
L 1831 4666 
z
" transform="scale(0.015625)"/>
        <path id="DejaVuSans-5a" d="M 269 3500 
L 844 3500 
L 1563 769 
L 2278 3500 
L 2956 3500 
L 3675 769 
L 4391 3500 
L 4966 3500 
L 4050 0 
L 3372 0 
L 2619 2869 
L 1863 0 
L 1184 0 
L 269 3500 
z
" transform="scale(0.015625)"/>
        <path id="DejaVuSans-28" d="M 628 4666 
L 3578 4666 
L 3578 4134 
L 1259 4134 
L 1259 2753 
L 3481 2753 
L 3481 2222 
L 1259 2222 
L 1259 531 
L 3634 531 
L 3634 0 
L 628 0 
L 628 4666 
z
" transform="scale(0.015625)"/>
        <path id="DejaVuSans-30" d="M 628 4666 
L 1569 4666 
L 2759 1491 
L 3956 4666 
L 4897 4666 
L 4897 0 
L 4281 0 
L 4281 4097 
L 3078 897 
L 2444 897 
L 1241 4097 
L 1241 0 
L 628 0 
L 628 4666 
z
" transform="scale(0.015625)"/>
       </defs>
       <use xlink:href="#DejaVuSans-24"/>
       <use xlink:href="#DejaVuSans-51" transform="translate(68.40625 0)"/>
       <use xlink:href="#DejaVuSans-56" transform="translate(131.78125 0)"/>
       <use xlink:href="#DejaVuSans-5a" transform="translate(183.875 0)"/>
       <use xlink:href="#DejaVuSans-48" transform="translate(265.65625 0)"/>
       <use xlink:href="#DejaVuSans-55" transform="translate(327.1875 0)"/>
       <use xlink:href="#DejaVuSans-3" transform="translate(368.296875 0)"/>
       <use xlink:href="#DejaVuSans-28" transform="translate(400.078125 0)"/>
       <use xlink:href="#DejaVuSans-30" transform="translate(463.265625 0)"/>
      </g>
     </g>
    </g>
    <g id="ytick_2">
     <g id="line2d_10"/>
     <g id="text_7">
      <!-- Joint EM -->
      <g style="fill: #111827" transform="translate(21.925 239.280631) scale(0.1 -0.1)">
       <defs>
        <path id="DejaVuSans-2d" d="M 628 4666 
L 1259 4666 
L 1259 325 
Q 1259 -519 939 -900 
Q 619 -1281 -91 -1281 
L -331 -1281 
L -331 -750 
L -134 -750 
Q 284 -750 456 -515 
Q 628 -281 628 325 
L 628 4666 
z
" transform="scale(0.015625)"/>
       </defs>
       <use xlink:href="#DejaVuSans-2d"/>
       <use xlink:href="#DejaVuSans-52" transform="translate(29.5 0)"/>
       <use xlink:href="#DejaVuSans-4c" transform="translate(90.6875 0)"/>
       <use xlink:href="#DejaVuSans-51" transform="translate(118.46875 0)"/>
       <use xlink:href="#DejaVuSans-57" transform="translate(181.84375 0)"/>
       <use xlink:href="#DejaVuSans-3" transform="translate(221.046875 0)"/>
       <use xlink:href="#DejaVuSans-28" transform="translate(252.828125 0)"/>
       <use xlink:href="#DejaVuSans-30" transform="translate(316.015625 0)"/>
      </g>
     </g>
    </g>
   </g>
   <g id="patch_3">
    <path d="M 300.937857 134.746932 
L 92.286506 134.746932 
L 92.286506 81.191892 
L 300.937857 81.191892 
z
" clip-path="url(#pd6d52ce79e)" style="fill: #9ca3af"/>
   </g>
   <g id="patch_4">
    <path d="M 300.937857 262.258932 
L 251.652106 262.258932 
L 251.652106 208.703892 
L 300.937857 208.703892 
z
" clip-path="url(#pd6d52ce79e)" style="fill: #9ca3af"/>
   </g>
   <g id="patch_5">
    <path d="M 300.937857 134.746932 
L 624.922869 134.746932 
L 624.922869 81.191892 
L 300.937857 81.191892 
z
" clip-path="url(#pd6d52ce79e)" style="fill: #2563eb"/>
   </g>
   <g id="patch_6">
    <path d="M 300.937857 262.258932 
L 412.518796 262.258932 
L 412.518796 208.703892 
L 300.937857 208.703892 
z
" clip-path="url(#pd6d52ce79e)" style="fill: #2563eb"/>
   </g>
   <g id="line2d_11">
    <path d="M 300.937857 292.861812 
L 300.937857 37.837812 
" clip-path="url(#pd6d52ce79e)" style="fill: none; stroke: #94a3b8; stroke-linecap: square"/>
   </g>
   <g id="patch_7">
    <path d="M 65.654688 292.861812 
L 651.554688 292.861812 
" style="fill: none; stroke: #d1d5db; stroke-width: 0.8; stroke-linejoin: miter; stroke-linecap: square"/>
   </g>
   <g id="text_8">
    <!-- 834 -->
    <g style="fill: #111827" transform="translate(63.313443 110.567069) scale(0.1 -0.1)">
     <defs>
      <path id="DejaVuSans-Bold-1b" d="M 2228 2088 
Q 1891 2088 1709 1903 
Q 1528 1719 1528 1375 
Q 1528 1031 1709 848 
Q 1891 666 2228 666 
Q 2563 666 2741 848 
Q 2919 1031 2919 1375 
Q 2919 1722 2741 1905 
Q 2563 2088 2228 2088 
z
M 1350 2484 
Q 925 2613 709 2878 
Q 494 3144 494 3541 
Q 494 4131 934 4440 
Q 1375 4750 2228 4750 
Q 3075 4750 3515 4442 
Q 3956 4134 3956 3541 
Q 3956 3144 3739 2878 
Q 3522 2613 3097 2484 
Q 3572 2353 3814 2058 
Q 4056 1763 4056 1313 
Q 4056 619 3595 264 
Q 3134 -91 2228 -91 
Q 1319 -91 855 264 
Q 391 619 391 1313 
Q 391 1763 633 2058 
Q 875 2353 1350 2484 
z
M 1631 3419 
Q 1631 3141 1786 2991 
Q 1941 2841 2228 2841 
Q 2509 2841 2662 2991 
Q 2816 3141 2816 3419 
Q 2816 3697 2662 3845 
Q 2509 3994 2228 3994 
Q 1941 3994 1786 3844 
Q 1631 3694 1631 3419 
z
" transform="scale(0.015625)"/>
      <path id="DejaVuSans-Bold-16" d="M 2981 2516 
Q 3453 2394 3698 2092 
Q 3944 1791 3944 1325 
Q 3944 631 3412 270 
Q 2881 -91 1863 -91 
Q 1503 -91 1142 -33 
Q 781 25 428 141 
L 428 1069 
Q 766 900 1098 814 
Q 1431 728 1753 728 
Q 2231 728 2486 893 
Q 2741 1059 2741 1369 
Q 2741 1688 2480 1852 
Q 2219 2016 1709 2016 
L 1228 2016 
L 1228 2791 
L 1734 2791 
Q 2188 2791 2409 2933 
Q 2631 3075 2631 3366 
Q 2631 3634 2415 3781 
Q 2200 3928 1806 3928 
Q 1516 3928 1219 3862 
Q 922 3797 628 3669 
L 628 4550 
Q 984 4650 1334 4700 
Q 1684 4750 2022 4750 
Q 2931 4750 3382 4451 
Q 3834 4153 3834 3553 
Q 3834 3144 3618 2883 
Q 3403 2622 2981 2516 
z
" transform="scale(0.015625)"/>
      <path id="DejaVuSans-Bold-17" d="M 2356 3675 
L 1038 1722 
L 2356 1722 
L 2356 3675 
z
M 2156 4666 
L 3494 4666 
L 3494 1722 
L 4159 1722 
L 4159 850 
L 3494 850 
L 3494 0 
L 2356 0 
L 2356 850 
L 288 850 
L 288 1881 
L 2156 4666 
z
" transform="scale(0.015625)"/>
     </defs>
     <use xlink:href="#DejaVuSans-Bold-1b"/>
     <use xlink:href="#DejaVuSans-Bold-16" transform="translate(69.578125 0)"/>
     <use xlink:href="#DejaVuSans-Bold-17" transform="translate(139.15625 0)"/>
    </g>
   </g>
   <g id="text_9">
    <!-- 1,295 -->
    <g style="fill: #111827" transform="translate(633.022495 110.567069) scale(0.1 -0.1)">
     <defs>
      <path id="DejaVuSans-Bold-14" d="M 750 831 
L 1813 831 
L 1813 3847 
L 722 3622 
L 722 4441 
L 1806 4666 
L 2950 4666 
L 2950 831 
L 4013 831 
L 4013 0 
L 750 0 
L 750 831 
z
" transform="scale(0.015625)"/>
      <path id="DejaVuSans-Bold-f" d="M 653 1209 
L 1778 1209 
L 1778 256 
L 1006 -909 
L 341 -909 
L 653 256 
L 653 1209 
z
" transform="scale(0.015625)"/>
      <path id="DejaVuSans-Bold-15" d="M 1844 884 
L 3897 884 
L 3897 0 
L 506 0 
L 506 884 
L 2209 2388 
Q 2438 2594 2547 2791 
Q 2656 2988 2656 3200 
Q 2656 3528 2436 3728 
Q 2216 3928 1850 3928 
Q 1569 3928 1234 3808 
Q 900 3688 519 3450 
L 519 4475 
Q 925 4609 1322 4679 
Q 1719 4750 2100 4750 
Q 2938 4750 3402 4381 
Q 3866 4013 3866 3353 
Q 3866 2972 3669 2642 
Q 3472 2313 2841 1759 
L 1844 884 
z
" transform="scale(0.015625)"/>
      <path id="DejaVuSans-Bold-1c" d="M 641 103 
L 641 966 
Q 928 831 1190 764 
Q 1453 697 1709 697 
Q 2247 697 2547 995 
Q 2847 1294 2900 1881 
Q 2688 1725 2447 1647 
Q 2206 1569 1925 1569 
Q 1209 1569 770 1986 
Q 331 2403 331 3084 
Q 331 3838 820 4291 
Q 1309 4744 2131 4744 
Q 3044 4744 3544 4128 
Q 4044 3513 4044 2388 
Q 4044 1231 3459 570 
Q 2875 -91 1856 -91 
Q 1528 -91 1228 -42 
Q 928 6 641 103 
z
M 2125 2350 
Q 2441 2350 2600 2554 
Q 2759 2759 2759 3169 
Q 2759 3575 2600 3781 
Q 2441 3988 2125 3988 
Q 1809 3988 1650 3781 
Q 1491 3575 1491 3169 
Q 1491 2759 1650 2554 
Q 1809 2350 2125 2350 
z
" transform="scale(0.015625)"/>
      <path id="DejaVuSans-Bold-18" d="M 678 4666 
L 3669 4666 
L 3669 3781 
L 1638 3781 
L 1638 3059 
Q 1775 3097 1914 3117 
Q 2053 3138 2203 3138 
Q 3056 3138 3531 2711 
Q 4006 2284 4006 1522 
Q 4006 766 3489 337 
Q 2972 -91 2053 -91 
Q 1656 -91 1267 -14 
Q 878 63 494 219 
L 494 1166 
Q 875 947 1217 837 
Q 1559 728 1863 728 
Q 2300 728 2551 942 
Q 2803 1156 2803 1522 
Q 2803 1891 2551 2103 
Q 2300 2316 1863 2316 
Q 1603 2316 1309 2248 
Q 1016 2181 678 2041 
L 678 4666 
z
" transform="scale(0.015625)"/>
     </defs>
     <use xlink:href="#DejaVuSans-Bold-14"/>
     <use xlink:href="#DejaVuSans-Bold-f" transform="translate(69.578125 0)"/>
     <use xlink:href="#DejaVuSans-Bold-15" transform="translate(107.5625 0)"/>
     <use xlink:href="#DejaVuSans-Bold-1c" transform="translate(177.140625 0)"/>
     <use xlink:href="#DejaVuSans-Bold-18" transform="translate(246.71875 0)"/>
    </g>
   </g>
   <g id="text_10">
    <!-- Net +461 correct questions -->
    <g style="fill: #2563eb" transform="translate(231.215279 66.278583) scale(0.09 -0.09)">
     <defs>
      <path id="DejaVuSans-Bold-31" d="M 588 4666 
L 1931 4666 
L 3628 1466 
L 3628 4666 
L 4769 4666 
L 4769 0 
L 3425 0 
L 1728 3200 
L 1728 0 
L 588 0 
L 588 4666 
z
" transform="scale(0.015625)"/>
      <path id="DejaVuSans-Bold-48" d="M 4031 1759 
L 4031 1441 
L 1416 1441 
Q 1456 1047 1700 850 
Q 1944 653 2381 653 
Q 2734 653 3104 758 
Q 3475 863 3866 1075 
L 3866 213 
Q 3469 63 3072 -14 
Q 2675 -91 2278 -91 
Q 1328 -91 801 392 
Q 275 875 275 1747 
Q 275 2603 792 3093 
Q 1309 3584 2216 3584 
Q 3041 3584 3536 3087 
Q 4031 2591 4031 1759 
z
M 2881 2131 
Q 2881 2450 2695 2645 
Q 2509 2841 2209 2841 
Q 1884 2841 1681 2658 
Q 1478 2475 1428 2131 
L 2881 2131 
z
" transform="scale(0.015625)"/>
      <path id="DejaVuSans-Bold-57" d="M 1759 4494 
L 1759 3500 
L 2913 3500 
L 2913 2700 
L 1759 2700 
L 1759 1216 
Q 1759 972 1856 886 
Q 1953 800 2241 800 
L 2816 800 
L 2816 0 
L 1856 0 
Q 1194 0 917 276 
Q 641 553 641 1216 
L 641 2700 
L 84 2700 
L 84 3500 
L 641 3500 
L 641 4494 
L 1759 4494 
z
" transform="scale(0.015625)"/>
      <path id="DejaVuSans-Bold-3" transform="scale(0.015625)"/>
      <path id="DejaVuSans-Bold-e" d="M 3053 4013 
L 3053 2375 
L 4684 2375 
L 4684 1638 
L 3053 1638 
L 3053 0 
L 2309 0 
L 2309 1638 
L 678 1638 
L 678 2375 
L 2309 2375 
L 2309 4013 
L 3053 4013 
z
" transform="scale(0.015625)"/>
      <path id="DejaVuSans-Bold-19" d="M 2316 2303 
Q 2000 2303 1842 2098 
Q 1684 1894 1684 1484 
Q 1684 1075 1842 870 
Q 2000 666 2316 666 
Q 2634 666 2792 870 
Q 2950 1075 2950 1484 
Q 2950 1894 2792 2098 
Q 2634 2303 2316 2303 
z
M 3803 4544 
L 3803 3681 
Q 3506 3822 3243 3889 
Q 2981 3956 2731 3956 
Q 2194 3956 1894 3657 
Q 1594 3359 1544 2772 
Q 1750 2925 1990 3001 
Q 2231 3078 2516 3078 
Q 3231 3078 3670 2659 
Q 4109 2241 4109 1563 
Q 4109 813 3618 361 
Q 3128 -91 2303 -91 
Q 1394 -91 895 523 
Q 397 1138 397 2266 
Q 397 3422 980 4083 
Q 1563 4744 2578 4744 
Q 2900 4744 3203 4694 
Q 3506 4644 3803 4544 
z
" transform="scale(0.015625)"/>
      <path id="DejaVuSans-Bold-46" d="M 3366 3391 
L 3366 2478 
Q 3138 2634 2908 2709 
Q 2678 2784 2431 2784 
Q 1963 2784 1702 2511 
Q 1441 2238 1441 1747 
Q 1441 1256 1702 982 
Q 1963 709 2431 709 
Q 2694 709 2930 787 
Q 3166 866 3366 1019 
L 3366 103 
Q 3103 6 2833 -42 
Q 2563 -91 2291 -91 
Q 1344 -91 809 395 
Q 275 881 275 1747 
Q 275 2613 809 3098 
Q 1344 3584 2291 3584 
Q 2566 3584 2833 3536 
Q 3100 3488 3366 3391 
z
" transform="scale(0.015625)"/>
      <path id="DejaVuSans-Bold-52" d="M 2203 2784 
Q 1831 2784 1636 2517 
Q 1441 2250 1441 1747 
Q 1441 1244 1636 976 
Q 1831 709 2203 709 
Q 2569 709 2762 976 
Q 2956 1244 2956 1747 
Q 2956 2250 2762 2517 
Q 2569 2784 2203 2784 
z
M 2203 3584 
Q 3106 3584 3614 3096 
Q 4122 2609 4122 1747 
Q 4122 884 3614 396 
Q 3106 -91 2203 -91 
Q 1297 -91 786 396 
Q 275 884 275 1747 
Q 275 2609 786 3096 
Q 1297 3584 2203 3584 
z
" transform="scale(0.015625)"/>
      <path id="DejaVuSans-Bold-55" d="M 3138 2547 
Q 2991 2616 2845 2648 
Q 2700 2681 2553 2681 
Q 2122 2681 1889 2404 
Q 1656 2128 1656 1613 
L 1656 0 
L 538 0 
L 538 3500 
L 1656 3500 
L 1656 2925 
Q 1872 3269 2151 3426 
Q 2431 3584 2822 3584 
Q 2878 3584 2943 3579 
Q 3009 3575 3134 3559 
L 3138 2547 
z
" transform="scale(0.015625)"/>
      <path id="DejaVuSans-Bold-54" d="M 2181 2772 
Q 1825 2772 1636 2509 
Q 1447 2247 1447 1747 
Q 1447 1247 1636 984 
Q 1825 722 2181 722 
Q 2541 722 2730 984 
Q 2919 1247 2919 1747 
Q 2919 2247 2730 2509 
Q 2541 2772 2181 2772 
z
M 2919 506 
Q 2688 197 2409 53 
Q 2131 -91 1766 -91 
Q 1119 -91 703 423 
Q 288 938 288 1747 
Q 288 2556 703 3067 
Q 1119 3578 1766 3578 
Q 2131 3578 2409 3434 
Q 2688 3291 2919 2981 
L 2919 3500 
L 4044 3500 
L 4044 -1331 
L 2919 -1331 
L 2919 506 
z
" transform="scale(0.015625)"/>
      <path id="DejaVuSans-Bold-58" d="M 500 1363 
L 500 3500 
L 1625 3500 
L 1625 3150 
Q 1625 2866 1622 2436 
Q 1619 2006 1619 1863 
Q 1619 1441 1641 1255 
Q 1663 1069 1716 984 
Q 1784 875 1895 815 
Q 2006 756 2150 756 
Q 2500 756 2700 1025 
Q 2900 1294 2900 1772 
L 2900 3500 
L 4019 3500 
L 4019 0 
L 2900 0 
L 2900 506 
Q 2647 200 2364 54 
Q 2081 -91 1741 -91 
Q 1134 -91 817 281 
Q 500 653 500 1363 
z
" transform="scale(0.015625)"/>
      <path id="DejaVuSans-Bold-56" d="M 3272 3391 
L 3272 2541 
Q 2913 2691 2578 2766 
Q 2244 2841 1947 2841 
Q 1628 2841 1473 2761 
Q 1319 2681 1319 2516 
Q 1319 2381 1436 2309 
Q 1553 2238 1856 2203 
L 2053 2175 
Q 2913 2066 3209 1816 
Q 3506 1566 3506 1031 
Q 3506 472 3093 190 
Q 2681 -91 1863 -91 
Q 1516 -91 1145 -36 
Q 775 19 384 128 
L 384 978 
Q 719 816 1070 734 
Q 1422 653 1784 653 
Q 2113 653 2278 743 
Q 2444 834 2444 1013 
Q 2444 1163 2330 1236 
Q 2216 1309 1875 1350 
L 1678 1375 
Q 931 1469 631 1722 
Q 331 1975 331 2491 
Q 331 3047 712 3315 
Q 1094 3584 1881 3584 
Q 2191 3584 2531 3537 
Q 2872 3491 3272 3391 
z
" transform="scale(0.015625)"/>
      <path id="DejaVuSans-Bold-4c" d="M 538 3500 
L 1656 3500 
L 1656 0 
L 538 0 
L 538 3500 
z
M 538 4863 
L 1656 4863 
L 1656 3950 
L 538 3950 
L 538 4863 
z
" transform="scale(0.015625)"/>
      <path id="DejaVuSans-Bold-51" d="M 4056 2131 
L 4056 0 
L 2931 0 
L 2931 347 
L 2931 1631 
Q 2931 2084 2911 2256 
Q 2891 2428 2841 2509 
Q 2775 2619 2662 2680 
Q 2550 2741 2406 2741 
Q 2056 2741 1856 2470 
Q 1656 2200 1656 1722 
L 1656 0 
L 538 0 
L 538 3500 
L 1656 3500 
L 1656 2988 
Q 1909 3294 2193 3439 
Q 2478 3584 2822 3584 
Q 3428 3584 3742 3212 
Q 4056 2841 4056 2131 
z
" transform="scale(0.015625)"/>
     </defs>
     <use xlink:href="#DejaVuSans-Bold-31"/>
     <use xlink:href="#DejaVuSans-Bold-48" transform="translate(83.6875 0)"/>
     <use xlink:href="#DejaVuSans-Bold-57" transform="translate(151.515625 0)"/>
     <use xlink:href="#DejaVuSans-Bold-3" transform="translate(199.3125 0)"/>
     <use xlink:href="#DejaVuSans-Bold-e" transform="translate(234.125 0)"/>
     <use xlink:href="#DejaVuSans-Bold-17" transform="translate(317.921875 0)"/>
     <use xlink:href="#DejaVuSans-Bold-19" transform="translate(387.5 0)"/>
     <use xlink:href="#DejaVuSans-Bold-14" transform="translate(457.078125 0)"/>
     <use xlink:href="#DejaVuSans-Bold-3" transform="translate(526.65625 0)"/>
     <use xlink:href="#DejaVuSans-Bold-46" transform="translate(561.46875 0)"/>
     <use xlink:href="#DejaVuSans-Bold-52" transform="translate(620.75 0)"/>
     <use xlink:href="#DejaVuSans-Bold-55" transform="translate(689.453125 0)"/>
     <use xlink:href="#DejaVuSans-Bold-55" transform="translate(738.765625 0)"/>
     <use xlink:href="#DejaVuSans-Bold-48" transform="translate(788.078125 0)"/>
     <use xlink:href="#DejaVuSans-Bold-46" transform="translate(855.90625 0)"/>
     <use xlink:href="#DejaVuSans-Bold-57" transform="translate(915.1875 0)"/>
     <use xlink:href="#DejaVuSans-Bold-3" transform="translate(962.984375 0)"/>
     <use xlink:href="#DejaVuSans-Bold-54" transform="translate(997.796875 0)"/>
     <use xlink:href="#DejaVuSans-Bold-58" transform="translate(1069.375 0)"/>
     <use xlink:href="#DejaVuSans-Bold-48" transform="translate(1140.5625 0)"/>
     <use xlink:href="#DejaVuSans-Bold-56" transform="translate(1208.390625 0)"/>
     <use xlink:href="#DejaVuSans-Bold-57" transform="translate(1267.90625 0)"/>
     <use xlink:href="#DejaVuSans-Bold-4c" transform="translate(1315.703125 0)"/>
     <use xlink:href="#DejaVuSans-Bold-52" transform="translate(1349.984375 0)"/>
     <use xlink:href="#DejaVuSans-Bold-51" transform="translate(1418.6875 0)"/>
     <use xlink:href="#DejaVuSans-Bold-56" transform="translate(1489.875 0)"/>
    </g>
   </g>
   <g id="text_11">
    <!-- 197 -->
    <g style="fill: #111827" transform="translate(222.679043 238.079069) scale(0.1 -0.1)">
     <defs>
      <path id="DejaVuSans-Bold-1a" d="M 428 4666 
L 3944 4666 
L 3944 3988 
L 2125 0 
L 953 0 
L 2675 3781 
L 428 3781 
L 428 4666 
z
" transform="scale(0.015625)"/>
     </defs>
     <use xlink:href="#DejaVuSans-Bold-14"/>
     <use xlink:href="#DejaVuSans-Bold-1c" transform="translate(69.578125 0)"/>
     <use xlink:href="#DejaVuSans-Bold-1a" transform="translate(139.15625 0)"/>
    </g>
   </g>
   <g id="text_12">
    <!-- 446 -->
    <g style="fill: #111827" transform="translate(420.618421 238.079069) scale(0.1 -0.1)">
     <use xlink:href="#DejaVuSans-Bold-17"/>
     <use xlink:href="#DejaVuSans-Bold-17" transform="translate(69.578125 0)"/>
     <use xlink:href="#DejaVuSans-Bold-19" transform="translate(139.15625 0)"/>
    </g>
   </g>
   <g id="text_13">
    <!-- Net +249 correct questions -->
    <g style="fill: #2563eb" transform="translate(231.215279 193.790583) scale(0.09 -0.09)">
     <use xlink:href="#DejaVuSans-Bold-31"/>
     <use xlink:href="#DejaVuSans-Bold-48" transform="translate(83.6875 0)"/>
     <use xlink:href="#DejaVuSans-Bold-57" transform="translate(151.515625 0)"/>
     <use xlink:href="#DejaVuSans-Bold-3" transform="translate(199.3125 0)"/>
     <use xlink:href="#DejaVuSans-Bold-e" transform="translate(234.125 0)"/>
     <use xlink:href="#DejaVuSans-Bold-15" transform="translate(317.921875 0)"/>
     <use xlink:href="#DejaVuSans-Bold-17" transform="translate(387.5 0)"/>
     <use xlink:href="#DejaVuSans-Bold-1c" transform="translate(457.078125 0)"/>
     <use xlink:href="#DejaVuSans-Bold-3" transform="translate(526.65625 0)"/>
     <use xlink:href="#DejaVuSans-Bold-46" transform="translate(561.46875 0)"/>
     <use xlink:href="#DejaVuSans-Bold-52" transform="translate(620.75 0)"/>
     <use xlink:href="#DejaVuSans-Bold-55" transform="translate(689.453125 0)"/>
     <use xlink:href="#DejaVuSans-Bold-55" transform="translate(738.765625 0)"/>
     <use xlink:href="#DejaVuSans-Bold-48" transform="translate(788.078125 0)"/>
     <use xlink:href="#DejaVuSans-Bold-46" transform="translate(855.90625 0)"/>
     <use xlink:href="#DejaVuSans-Bold-57" transform="translate(915.1875 0)"/>
     <use xlink:href="#DejaVuSans-Bold-3" transform="translate(962.984375 0)"/>
     <use xlink:href="#DejaVuSans-Bold-54" transform="translate(997.796875 0)"/>
     <use xlink:href="#DejaVuSans-Bold-58" transform="translate(1069.375 0)"/>
     <use xlink:href="#DejaVuSans-Bold-48" transform="translate(1140.5625 0)"/>
     <use xlink:href="#DejaVuSans-Bold-56" transform="translate(1208.390625 0)"/>
     <use xlink:href="#DejaVuSans-Bold-57" transform="translate(1267.90625 0)"/>
     <use xlink:href="#DejaVuSans-Bold-4c" transform="translate(1315.703125 0)"/>
     <use xlink:href="#DejaVuSans-Bold-52" transform="translate(1349.984375 0)"/>
     <use xlink:href="#DejaVuSans-Bold-51" transform="translate(1418.6875 0)"/>
     <use xlink:href="#DejaVuSans-Bold-56" transform="translate(1489.875 0)"/>
    </g>
   </g>
   <g id="text_14">
    <!-- Paired by HotpotQA question ID; neutral cases are omitted from the bars -->
    <g style="fill: #6b7280" transform="translate(65.654687 30.455106) scale(0.095 -0.095)">
     <defs>
      <path id="DejaVuSans-33" d="M 1259 4147 
L 1259 2394 
L 2053 2394 
Q 2494 2394 2734 2622 
Q 2975 2850 2975 3272 
Q 2975 3691 2734 3919 
Q 2494 4147 2053 4147 
L 1259 4147 
z
M 628 4666 
L 2053 4666 
Q 2838 4666 3239 4311 
Q 3641 3956 3641 3272 
Q 3641 2581 3239 2228 
Q 2838 1875 2053 1875 
L 1259 1875 
L 1259 0 
L 628 0 
L 628 4666 
z
" transform="scale(0.015625)"/>
      <path id="DejaVuSans-5c" d="M 2059 -325 
Q 1816 -950 1584 -1140 
Q 1353 -1331 966 -1331 
L 506 -1331 
L 506 -850 
L 844 -850 
Q 1081 -850 1212 -737 
Q 1344 -625 1503 -206 
L 1606 56 
L 191 3500 
L 800 3500 
L 1894 763 
L 2988 3500 
L 3597 3500 
L 2059 -325 
z
" transform="scale(0.015625)"/>
      <path id="DejaVuSans-2b" d="M 628 4666 
L 1259 4666 
L 1259 2753 
L 3553 2753 
L 3553 4666 
L 4184 4666 
L 4184 0 
L 3553 0 
L 3553 2222 
L 1259 2222 
L 1259 0 
L 628 0 
L 628 4666 
z
" transform="scale(0.015625)"/>
      <path id="DejaVuSans-34" d="M 2522 4238 
Q 1834 4238 1429 3725 
Q 1025 3213 1025 2328 
Q 1025 1447 1429 934 
Q 1834 422 2522 422 
Q 3209 422 3611 934 
Q 4013 1447 4013 2328 
Q 4013 3213 3611 3725 
Q 3209 4238 2522 4238 
z
M 3406 84 
L 4238 -825 
L 3475 -825 
L 2784 -78 
Q 2681 -84 2626 -87 
Q 2572 -91 2522 -91 
Q 1538 -91 948 567 
Q 359 1225 359 2328 
Q 359 3434 948 4092 
Q 1538 4750 2522 4750 
Q 3503 4750 4090 4092 
Q 4678 3434 4678 2328 
Q 4678 1516 4351 937 
Q 4025 359 3406 84 
z
" transform="scale(0.015625)"/>
      <path id="DejaVuSans-2c" d="M 628 4666 
L 1259 4666 
L 1259 0 
L 628 0 
L 628 4666 
z
" transform="scale(0.015625)"/>
      <path id="DejaVuSans-27" d="M 1259 4147 
L 1259 519 
L 2022 519 
Q 2988 519 3436 956 
Q 3884 1394 3884 2338 
Q 3884 3275 3436 3711 
Q 2988 4147 2022 4147 
L 1259 4147 
z
M 628 4666 
L 1925 4666 
Q 3281 4666 3915 4102 
Q 4550 3538 4550 2338 
Q 4550 1131 3912 565 
Q 3275 0 1925 0 
L 628 0 
L 628 4666 
z
" transform="scale(0.015625)"/>
      <path id="DejaVuSans-1e" d="M 750 3309 
L 1409 3309 
L 1409 2516 
L 750 2516 
L 750 3309 
z
M 750 794 
L 1409 794 
L 1409 256 
L 897 -744 
L 494 -744 
L 750 256 
L 750 794 
z
" transform="scale(0.015625)"/>
      <path id="DejaVuSans-4f" d="M 603 4863 
L 1178 4863 
L 1178 0 
L 603 0 
L 603 4863 
z
" transform="scale(0.015625)"/>
      <path id="DejaVuSans-46" d="M 3122 3366 
L 3122 2828 
Q 2878 2963 2633 3030 
Q 2388 3097 2138 3097 
Q 1578 3097 1268 2742 
Q 959 2388 959 1747 
Q 959 1106 1268 751 
Q 1578 397 2138 397 
Q 2388 397 2633 464 
Q 2878 531 3122 666 
L 3122 134 
Q 2881 22 2623 -34 
Q 2366 -91 2075 -91 
Q 1284 -91 818 406 
Q 353 903 353 1747 
Q 353 2603 823 3093 
Q 1294 3584 2113 3584 
Q 2378 3584 2631 3529 
Q 2884 3475 3122 3366 
z
" transform="scale(0.015625)"/>
      <path id="DejaVuSans-4b" d="M 3513 2113 
L 3513 0 
L 2938 0 
L 2938 2094 
Q 2938 2591 2744 2837 
Q 2550 3084 2163 3084 
Q 1697 3084 1428 2787 
Q 1159 2491 1159 1978 
L 1159 0 
L 581 0 
L 581 4863 
L 1159 4863 
L 1159 2956 
Q 1366 3272 1645 3428 
Q 1925 3584 2291 3584 
Q 2894 3584 3203 3211 
Q 3513 2838 3513 2113 
z
" transform="scale(0.015625)"/>
     </defs>
     <use xlink:href="#DejaVuSans-33"/>
     <use xlink:href="#DejaVuSans-44" transform="translate(55.8125 0)"/>
     <use xlink:href="#DejaVuSans-4c" transform="translate(117.09375 0)"/>
     <use xlink:href="#DejaVuSans-55" transform="translate(144.875 0)"/>
     <use xlink:href="#DejaVuSans-48" transform="translate(183.78125 0)"/>
     <use xlink:href="#DejaVuSans-47" transform="translate(245.3125 0)"/>
     <use xlink:href="#DejaVuSans-3" transform="translate(308.796875 0)"/>
     <use xlink:href="#DejaVuSans-45" transform="translate(340.578125 0)"/>
     <use xlink:href="#DejaVuSans-5c" transform="translate(404.0625 0)"/>
     <use xlink:href="#DejaVuSans-3" transform="translate(463.25 0)"/>
     <use xlink:href="#DejaVuSans-2b" transform="translate(495.03125 0)"/>
     <use xlink:href="#DejaVuSans-52" transform="translate(570.234375 0)"/>
     <use xlink:href="#DejaVuSans-57" transform="translate(631.421875 0)"/>
     <use xlink:href="#DejaVuSans-53" transform="translate(670.625 0)"/>
     <use xlink:href="#DejaVuSans-52" transform="translate(734.109375 0)"/>
     <use xlink:href="#DejaVuSans-57" transform="translate(795.296875 0)"/>
     <use xlink:href="#DejaVuSans-34" transform="translate(834.5 0)"/>
     <use xlink:href="#DejaVuSans-24" transform="translate(913.21875 0)"/>
     <use xlink:href="#DejaVuSans-3" transform="translate(981.625 0)"/>
     <use xlink:href="#DejaVuSans-54" transform="translate(1013.40625 0)"/>
     <use xlink:href="#DejaVuSans-58" transform="translate(1076.890625 0)"/>
     <use xlink:href="#DejaVuSans-48" transform="translate(1140.265625 0)"/>
     <use xlink:href="#DejaVuSans-56" transform="translate(1201.796875 0)"/>
     <use xlink:href="#DejaVuSans-57" transform="translate(1253.890625 0)"/>
     <use xlink:href="#DejaVuSans-4c" transform="translate(1293.09375 0)"/>
     <use xlink:href="#DejaVuSans-52" transform="translate(1320.875 0)"/>
     <use xlink:href="#DejaVuSans-51" transform="translate(1382.0625 0)"/>
     <use xlink:href="#DejaVuSans-3" transform="translate(1445.4375 0)"/>
     <use xlink:href="#DejaVuSans-2c" transform="translate(1477.21875 0)"/>
     <use xlink:href="#DejaVuSans-27" transform="translate(1506.71875 0)"/>
     <use xlink:href="#DejaVuSans-1e" transform="translate(1583.71875 0)"/>
     <use xlink:href="#DejaVuSans-3" transform="translate(1617.40625 0)"/>
     <use xlink:href="#DejaVuSans-51" transform="translate(1649.1875 0)"/>
     <use xlink:href="#DejaVuSans-48" transform="translate(1712.5625 0)"/>
     <use xlink:href="#DejaVuSans-58" transform="translate(1774.09375 0)"/>
     <use xlink:href="#DejaVuSans-57" transform="translate(1837.46875 0)"/>
     <use xlink:href="#DejaVuSans-55" transform="translate(1876.671875 0)"/>
     <use xlink:href="#DejaVuSans-44" transform="translate(1917.78125 0)"/>
     <use xlink:href="#DejaVuSans-4f" transform="translate(1979.0625 0)"/>
     <use xlink:href="#DejaVuSans-3" transform="translate(2006.84375 0)"/>
     <use xlink:href="#DejaVuSans-46" transform="translate(2038.625 0)"/>
     <use xlink:href="#DejaVuSans-44" transform="translate(2093.609375 0)"/>
     <use xlink:href="#DejaVuSans-56" transform="translate(2154.890625 0)"/>
     <use xlink:href="#DejaVuSans-48" transform="translate(2206.984375 0)"/>
     <use xlink:href="#DejaVuSans-56" transform="translate(2268.515625 0)"/>
     <use xlink:href="#DejaVuSans-3" transform="translate(2320.609375 0)"/>
     <use xlink:href="#DejaVuSans-44" transform="translate(2352.390625 0)"/>
     <use xlink:href="#DejaVuSans-55" transform="translate(2413.671875 0)"/>
     <use xlink:href="#DejaVuSans-48" transform="translate(2452.578125 0)"/>
     <use xlink:href="#DejaVuSans-3" transform="translate(2514.109375 0)"/>
     <use xlink:href="#DejaVuSans-52" transform="translate(2545.890625 0)"/>
     <use xlink:href="#DejaVuSans-50" transform="translate(2607.078125 0)"/>
     <use xlink:href="#DejaVuSans-4c" transform="translate(2704.484375 0)"/>
     <use xlink:href="#DejaVuSans-57" transform="translate(2732.265625 0)"/>
     <use xlink:href="#DejaVuSans-57" transform="translate(2771.46875 0)"/>
     <use xlink:href="#DejaVuSans-48" transform="translate(2810.671875 0)"/>
     <use xlink:href="#DejaVuSans-47" transform="translate(2872.203125 0)"/>
     <use xlink:href="#DejaVuSans-3" transform="translate(2935.6875 0)"/>
     <use xlink:href="#DejaVuSans-49" transform="translate(2967.46875 0)"/>
     <use xlink:href="#DejaVuSans-55" transform="translate(3002.671875 0)"/>
     <use xlink:href="#DejaVuSans-52" transform="translate(3041.578125 0)"/>
     <use xlink:href="#DejaVuSans-50" transform="translate(3102.765625 0)"/>
     <use xlink:href="#DejaVuSans-3" transform="translate(3200.171875 0)"/>
     <use xlink:href="#DejaVuSans-57" transform="translate(3231.953125 0)"/>
     <use xlink:href="#DejaVuSans-4b" transform="translate(3271.15625 0)"/>
     <use xlink:href="#DejaVuSans-48" transform="translate(3334.53125 0)"/>
     <use xlink:href="#DejaVuSans-3" transform="translate(3396.0625 0)"/>
     <use xlink:href="#DejaVuSans-45" transform="translate(3427.84375 0)"/>
     <use xlink:href="#DejaVuSans-44" transform="translate(3491.328125 0)"/>
     <use xlink:href="#DejaVuSans-55" transform="translate(3552.609375 0)"/>
     <use xlink:href="#DejaVuSans-56" transform="translate(3593.71875 0)"/>
    </g>
   </g>
   <g id="text_15">
    <!-- ReAct rescues more exact-match failures than it introduces -->
    <g style="fill: #111827" transform="translate(65.654687 17.837812) scale(0.14 -0.14)">
     <defs>
      <path id="DejaVuSans-Bold-35" d="M 2297 2597 
Q 2675 2597 2839 2737 
Q 3003 2878 3003 3200 
Q 3003 3519 2839 3656 
Q 2675 3794 2297 3794 
L 1791 3794 
L 1791 2597 
L 2297 2597 
z
M 1791 1766 
L 1791 0 
L 588 0 
L 588 4666 
L 2425 4666 
Q 3347 4666 3776 4356 
Q 4206 4047 4206 3378 
Q 4206 2916 3982 2619 
Q 3759 2322 3309 2181 
Q 3556 2125 3751 1926 
Q 3947 1728 4147 1325 
L 4800 0 
L 3519 0 
L 2950 1159 
Q 2778 1509 2601 1637 
Q 2425 1766 2131 1766 
L 1791 1766 
z
" transform="scale(0.015625)"/>
      <path id="DejaVuSans-Bold-24" d="M 3419 850 
L 1538 850 
L 1241 0 
L 31 0 
L 1759 4666 
L 3194 4666 
L 4922 0 
L 3713 0 
L 3419 850 
z
M 1838 1716 
L 3116 1716 
L 2478 3572 
L 1838 1716 
z
" transform="scale(0.015625)"/>
      <path id="DejaVuSans-Bold-50" d="M 3781 2919 
Q 3994 3244 4286 3414 
Q 4578 3584 4928 3584 
Q 5531 3584 5847 3212 
Q 6163 2841 6163 2131 
L 6163 0 
L 5038 0 
L 5038 1825 
Q 5041 1866 5042 1909 
Q 5044 1953 5044 2034 
Q 5044 2406 4934 2573 
Q 4825 2741 4581 2741 
Q 4263 2741 4089 2478 
Q 3916 2216 3909 1719 
L 3909 0 
L 2784 0 
L 2784 1825 
Q 2784 2406 2684 2573 
Q 2584 2741 2328 2741 
Q 2006 2741 1831 2477 
Q 1656 2213 1656 1722 
L 1656 0 
L 531 0 
L 531 3500 
L 1656 3500 
L 1656 2988 
Q 1863 3284 2130 3434 
Q 2397 3584 2719 3584 
Q 3081 3584 3359 3409 
Q 3638 3234 3781 2919 
z
" transform="scale(0.015625)"/>
      <path id="DejaVuSans-Bold-5b" d="M 1422 1791 
L 159 3500 
L 1344 3500 
L 2059 2463 
L 2784 3500 
L 3969 3500 
L 2706 1797 
L 4031 0 
L 2847 0 
L 2059 1106 
L 1281 0 
L 97 0 
L 1422 1791 
z
" transform="scale(0.015625)"/>
      <path id="DejaVuSans-Bold-44" d="M 2106 1575 
Q 1756 1575 1579 1456 
Q 1403 1338 1403 1106 
Q 1403 894 1545 773 
Q 1688 653 1941 653 
Q 2256 653 2472 879 
Q 2688 1106 2688 1447 
L 2688 1575 
L 2106 1575 
z
M 3816 1997 
L 3816 0 
L 2688 0 
L 2688 519 
Q 2463 200 2181 54 
Q 1900 -91 1497 -91 
Q 953 -91 614 226 
Q 275 544 275 1050 
Q 275 1666 698 1953 
Q 1122 2241 2028 2241 
L 2688 2241 
L 2688 2328 
Q 2688 2594 2478 2717 
Q 2269 2841 1825 2841 
Q 1466 2841 1156 2769 
Q 847 2697 581 2553 
L 581 3406 
Q 941 3494 1303 3539 
Q 1666 3584 2028 3584 
Q 2975 3584 3395 3211 
Q 3816 2838 3816 1997 
z
" transform="scale(0.015625)"/>
      <path id="DejaVuSans-Bold-10" d="M 347 2297 
L 2309 2297 
L 2309 1388 
L 347 1388 
L 347 2297 
z
" transform="scale(0.015625)"/>
      <path id="DejaVuSans-Bold-4b" d="M 4056 2131 
L 4056 0 
L 2931 0 
L 2931 347 
L 2931 1625 
Q 2931 2084 2911 2256 
Q 2891 2428 2841 2509 
Q 2775 2619 2662 2680 
Q 2550 2741 2406 2741 
Q 2056 2741 1856 2470 
Q 1656 2200 1656 1722 
L 1656 0 
L 538 0 
L 538 4863 
L 1656 4863 
L 1656 2988 
Q 1909 3294 2193 3439 
Q 2478 3584 2822 3584 
Q 3428 3584 3742 3212 
Q 4056 2841 4056 2131 
z
" transform="scale(0.015625)"/>
      <path id="DejaVuSans-Bold-49" d="M 2841 4863 
L 2841 4128 
L 2222 4128 
Q 1984 4128 1890 4042 
Q 1797 3956 1797 3744 
L 1797 3500 
L 2753 3500 
L 2753 2700 
L 1797 2700 
L 1797 0 
L 678 0 
L 678 2700 
L 122 2700 
L 122 3500 
L 678 3500 
L 678 3744 
Q 678 4316 997 4589 
Q 1316 4863 1984 4863 
L 2841 4863 
z
" transform="scale(0.015625)"/>
      <path id="DejaVuSans-Bold-4f" d="M 538 4863 
L 1656 4863 
L 1656 0 
L 538 0 
L 538 4863 
z
" transform="scale(0.015625)"/>
      <path id="DejaVuSans-Bold-47" d="M 2919 2988 
L 2919 4863 
L 4044 4863 
L 4044 0 
L 2919 0 
L 2919 506 
Q 2688 197 2409 53 
Q 2131 -91 1766 -91 
Q 1119 -91 703 423 
Q 288 938 288 1747 
Q 288 2556 703 3070 
Q 1119 3584 1766 3584 
Q 2128 3584 2408 3439 
Q 2688 3294 2919 2988 
z
M 2181 722 
Q 2541 722 2730 984 
Q 2919 1247 2919 1747 
Q 2919 2247 2730 2509 
Q 2541 2772 2181 2772 
Q 1825 2772 1636 2509 
Q 1447 2247 1447 1747 
Q 1447 1247 1636 984 
Q 1825 722 2181 722 
z
" transform="scale(0.015625)"/>
     </defs>
     <use xlink:href="#DejaVuSans-Bold-35"/>
     <use xlink:href="#DejaVuSans-Bold-48" transform="translate(77 0)"/>
     <use xlink:href="#DejaVuSans-Bold-24" transform="translate(144.828125 0)"/>
     <use xlink:href="#DejaVuSans-Bold-46" transform="translate(222.21875 0)"/>
     <use xlink:href="#DejaVuSans-Bold-57" transform="translate(281.5 0)"/>
     <use xlink:href="#DejaVuSans-Bold-3" transform="translate(329.296875 0)"/>
     <use xlink:href="#DejaVuSans-Bold-55" transform="translate(364.109375 0)"/>
     <use xlink:href="#DejaVuSans-Bold-48" transform="translate(413.421875 0)"/>
     <use xlink:href="#DejaVuSans-Bold-56" transform="translate(481.25 0)"/>
     <use xlink:href="#DejaVuSans-Bold-46" transform="translate(540.765625 0)"/>
     <use xlink:href="#DejaVuSans-Bold-58" transform="translate(600.046875 0)"/>
     <use xlink:href="#DejaVuSans-Bold-48" transform="translate(671.234375 0)"/>
     <use xlink:href="#DejaVuSans-Bold-56" transform="translate(739.0625 0)"/>
     <use xlink:href="#DejaVuSans-Bold-3" transform="translate(798.578125 0)"/>
     <use xlink:href="#DejaVuSans-Bold-50" transform="translate(833.390625 0)"/>
     <use xlink:href="#DejaVuSans-Bold-52" transform="translate(937.59375 0)"/>
     <use xlink:href="#DejaVuSans-Bold-55" transform="translate(1006.296875 0)"/>
     <use xlink:href="#DejaVuSans-Bold-48" transform="translate(1055.609375 0)"/>
     <use xlink:href="#DejaVuSans-Bold-3" transform="translate(1123.4375 0)"/>
     <use xlink:href="#DejaVuSans-Bold-48" transform="translate(1158.25 0)"/>
     <use xlink:href="#DejaVuSans-Bold-5b" transform="translate(1226.078125 0)"/>
     <use xlink:href="#DejaVuSans-Bold-44" transform="translate(1290.578125 0)"/>
     <use xlink:href="#DejaVuSans-Bold-46" transform="translate(1358.0625 0)"/>
     <use xlink:href="#DejaVuSans-Bold-57" transform="translate(1417.34375 0)"/>
     <use xlink:href="#DejaVuSans-Bold-10" transform="translate(1465.140625 0)"/>
     <use xlink:href="#DejaVuSans-Bold-50" transform="translate(1506.640625 0)"/>
     <use xlink:href="#DejaVuSans-Bold-44" transform="translate(1610.84375 0)"/>
     <use xlink:href="#DejaVuSans-Bold-57" transform="translate(1678.328125 0)"/>
     <use xlink:href="#DejaVuSans-Bold-46" transform="translate(1726.125 0)"/>
     <use xlink:href="#DejaVuSans-Bold-4b" transform="translate(1785.40625 0)"/>
     <use xlink:href="#DejaVuSans-Bold-3" transform="translate(1856.59375 0)"/>
     <use xlink:href="#DejaVuSans-Bold-49" transform="translate(1891.40625 0)"/>
     <use xlink:href="#DejaVuSans-Bold-44" transform="translate(1934.90625 0)"/>
     <use xlink:href="#DejaVuSans-Bold-4c" transform="translate(2002.390625 0)"/>
     <use xlink:href="#DejaVuSans-Bold-4f" transform="translate(2036.671875 0)"/>
     <use xlink:href="#DejaVuSans-Bold-58" transform="translate(2070.953125 0)"/>
     <use xlink:href="#DejaVuSans-Bold-55" transform="translate(2142.140625 0)"/>
     <use xlink:href="#DejaVuSans-Bold-48" transform="translate(2191.453125 0)"/>
     <use xlink:href="#DejaVuSans-Bold-56" transform="translate(2259.28125 0)"/>
     <use xlink:href="#DejaVuSans-Bold-3" transform="translate(2318.796875 0)"/>
     <use xlink:href="#DejaVuSans-Bold-57" transform="translate(2353.609375 0)"/>
     <use xlink:href="#DejaVuSans-Bold-4b" transform="translate(2401.40625 0)"/>
     <use xlink:href="#DejaVuSans-Bold-44" transform="translate(2472.59375 0)"/>
     <use xlink:href="#DejaVuSans-Bold-51" transform="translate(2540.078125 0)"/>
     <use xlink:href="#DejaVuSans-Bold-3" transform="translate(2611.265625 0)"/>
     <use xlink:href="#DejaVuSans-Bold-4c" transform="translate(2646.078125 0)"/>
     <use xlink:href="#DejaVuSans-Bold-57" transform="translate(2680.359375 0)"/>
     <use xlink:href="#DejaVuSans-Bold-3" transform="translate(2728.15625 0)"/>
     <use xlink:href="#DejaVuSans-Bold-4c" transform="translate(2762.96875 0)"/>
     <use xlink:href="#DejaVuSans-Bold-51" transform="translate(2797.25 0)"/>
     <use xlink:href="#DejaVuSans-Bold-57" transform="translate(2868.4375 0)"/>
     <use xlink:href="#DejaVuSans-Bold-55" transform="translate(2916.234375 0)"/>
     <use xlink:href="#DejaVuSans-Bold-52" transform="translate(2965.546875 0)"/>
     <use xlink:href="#DejaVuSans-Bold-47" transform="translate(3034.25 0)"/>
     <use xlink:href="#DejaVuSans-Bold-58" transform="translate(3105.828125 0)"/>
     <use xlink:href="#DejaVuSans-Bold-46" transform="translate(3177.015625 0)"/>
     <use xlink:href="#DejaVuSans-Bold-48" transform="translate(3236.296875 0)"/>
     <use xlink:href="#DejaVuSans-Bold-56" transform="translate(3304.125 0)"/>
    </g>
   </g>
   <g id="legend_1">
    <g id="patch_8">
     <path d="M 162.4875 352.866189 
L 182.4875 352.866189 
L 182.4875 345.866189 
L 162.4875 345.866189 
z
" style="fill: #9ca3af"/>
    </g>
    <g id="text_16">
     <!-- Baseline correct → ReAct wrong -->
     <g style="fill: #111827" transform="translate(190.4875 352.866189) scale(0.1 -0.1)">
      <defs>
       <path id="DejaVuSans-25" d="M 1259 2228 
L 1259 519 
L 2272 519 
Q 2781 519 3026 730 
Q 3272 941 3272 1375 
Q 3272 1813 3026 2020 
Q 2781 2228 2272 2228 
L 1259 2228 
z
M 1259 4147 
L 1259 2741 
L 2194 2741 
Q 2656 2741 2882 2914 
Q 3109 3088 3109 3444 
Q 3109 3797 2882 3972 
Q 2656 4147 2194 4147 
L 1259 4147 
z
M 628 4666 
L 2241 4666 
Q 2963 4666 3353 4366 
Q 3744 4066 3744 3513 
Q 3744 3084 3544 2831 
Q 3344 2578 2956 2516 
Q 3422 2416 3680 2098 
Q 3938 1781 3938 1306 
Q 3938 681 3513 340 
Q 3088 0 2303 0 
L 628 0 
L 628 4666 
z
" transform="scale(0.015625)"/>
       <path id="DejaVuSans-c1c" d="M 5050 2147 
L 5050 1866 
L 3822 638 
L 3447 1013 
L 4175 1741 
L 366 1741 
L 366 2272 
L 4175 2272 
L 3447 3000 
L 3822 3375 
L 5050 2147 
z
" transform="scale(0.015625)"/>
       <path id="DejaVuSans-35" d="M 2841 2188 
Q 3044 2119 3236 1894 
Q 3428 1669 3622 1275 
L 4263 0 
L 3584 0 
L 2988 1197 
Q 2756 1666 2539 1819 
Q 2322 1972 1947 1972 
L 1259 1972 
L 1259 0 
L 628 0 
L 628 4666 
L 2053 4666 
Q 2853 4666 3247 4331 
Q 3641 3997 3641 3322 
Q 3641 2881 3436 2590 
Q 3231 2300 2841 2188 
z
M 1259 4147 
L 1259 2491 
L 2053 2491 
Q 2509 2491 2742 2702 
Q 2975 2913 2975 3322 
Q 2975 3731 2742 3939 
Q 2509 4147 2053 4147 
L 1259 4147 
z
" transform="scale(0.015625)"/>
       <path id="DejaVuSans-4a" d="M 2906 1791 
Q 2906 2416 2648 2759 
Q 2391 3103 1925 3103 
Q 1463 3103 1205 2759 
Q 947 2416 947 1791 
Q 947 1169 1205 825 
Q 1463 481 1925 481 
Q 2391 481 2648 825 
Q 2906 1169 2906 1791 
z
M 3481 434 
Q 3481 -459 3084 -895 
Q 2688 -1331 1869 -1331 
Q 1566 -1331 1297 -1286 
Q 1028 -1241 775 -1147 
L 775 -588 
Q 1028 -725 1275 -790 
Q 1522 -856 1778 -856 
Q 2344 -856 2625 -561 
Q 2906 -266 2906 331 
L 2906 616 
Q 2728 306 2450 153 
Q 2172 0 1784 0 
Q 1141 0 747 490 
Q 353 981 353 1791 
Q 353 2603 747 3093 
Q 1141 3584 1784 3584 
Q 2172 3584 2450 3431 
Q 2728 3278 2906 2969 
L 2906 3500 
L 3481 3500 
L 3481 434 
z
" transform="scale(0.015625)"/>
      </defs>
      <use xlink:href="#DejaVuSans-25"/>
      <use xlink:href="#DejaVuSans-44" transform="translate(68.609375 0)"/>
      <use xlink:href="#DejaVuSans-56" transform="translate(129.890625 0)"/>
      <use xlink:href="#DejaVuSans-48" transform="translate(181.984375 0)"/>
      <use xlink:href="#DejaVuSans-4f" transform="translate(243.515625 0)"/>
      <use xlink:href="#DejaVuSans-4c" transform="translate(271.296875 0)"/>
      <use xlink:href="#DejaVuSans-51" transform="translate(299.078125 0)"/>
      <use xlink:href="#DejaVuSans-48" transform="translate(362.453125 0)"/>
      <use xlink:href="#DejaVuSans-3" transform="translate(423.984375 0)"/>
      <use xlink:href="#DejaVuSans-46" transform="translate(455.765625 0)"/>
      <use xlink:href="#DejaVuSans-52" transform="translate(510.75 0)"/>
      <use xlink:href="#DejaVuSans-55" transform="translate(571.9375 0)"/>
      <use xlink:href="#DejaVuSans-55" transform="translate(611.296875 0)"/>
      <use xlink:href="#DejaVuSans-48" transform="translate(650.203125 0)"/>
      <use xlink:href="#DejaVuSans-46" transform="translate(711.734375 0)"/>
      <use xlink:href="#DejaVuSans-57" transform="translate(766.71875 0)"/>
      <use xlink:href="#DejaVuSans-3" transform="translate(805.921875 0)"/>
      <use xlink:href="#DejaVuSans-c1c" transform="translate(837.703125 0)"/>
      <use xlink:href="#DejaVuSans-3" transform="translate(921.5 0)"/>
      <use xlink:href="#DejaVuSans-35" transform="translate(953.28125 0)"/>
      <use xlink:href="#DejaVuSans-48" transform="translate(1018.28125 0)"/>
      <use xlink:href="#DejaVuSans-24" transform="translate(1079.8125 0)"/>
      <use xlink:href="#DejaVuSans-46" transform="translate(1146.46875 0)"/>
      <use xlink:href="#DejaVuSans-57" transform="translate(1201.453125 0)"/>
      <use xlink:href="#DejaVuSans-3" transform="translate(1240.65625 0)"/>
      <use xlink:href="#DejaVuSans-5a" transform="translate(1272.4375 0)"/>
      <use xlink:href="#DejaVuSans-55" transform="translate(1354.21875 0)"/>
      <use xlink:href="#DejaVuSans-52" transform="translate(1393.125 0)"/>
      <use xlink:href="#DejaVuSans-51" transform="translate(1454.3125 0)"/>
      <use xlink:href="#DejaVuSans-4a" transform="translate(1517.6875 0)"/>
     </g>
    </g>
    <g id="patch_9">
     <path d="M 368.604687 352.866189 
L 388.604687 352.866189 
L 388.604687 345.866189 
L 368.604687 345.866189 
z
" style="fill: #2563eb"/>
    </g>
    <g id="text_17">
     <!-- Baseline wrong → ReAct correct -->
     <g style="fill: #111827" transform="translate(396.604687 352.866189) scale(0.1 -0.1)">
      <use xlink:href="#DejaVuSans-25"/>
      <use xlink:href="#DejaVuSans-44" transform="translate(68.609375 0)"/>
      <use xlink:href="#DejaVuSans-56" transform="translate(129.890625 0)"/>
      <use xlink:href="#DejaVuSans-48" transform="translate(181.984375 0)"/>
      <use xlink:href="#DejaVuSans-4f" transform="translate(243.515625 0)"/>
      <use xlink:href="#DejaVuSans-4c" transform="translate(271.296875 0)"/>
      <use xlink:href="#DejaVuSans-51" transform="translate(299.078125 0)"/>
      <use xlink:href="#DejaVuSans-48" transform="translate(362.453125 0)"/>
      <use xlink:href="#DejaVuSans-3" transform="translate(423.984375 0)"/>
      <use xlink:href="#DejaVuSans-5a" transform="translate(455.765625 0)"/>
      <use xlink:href="#DejaVuSans-55" transform="translate(537.546875 0)"/>
      <use xlink:href="#DejaVuSans-52" transform="translate(576.453125 0)"/>
      <use xlink:href="#DejaVuSans-51" transform="translate(637.640625 0)"/>
      <use xlink:href="#DejaVuSans-4a" transform="translate(701.015625 0)"/>
      <use xlink:href="#DejaVuSans-3" transform="translate(764.5 0)"/>
      <use xlink:href="#DejaVuSans-c1c" transform="translate(796.28125 0)"/>
      <use xlink:href="#DejaVuSans-3" transform="translate(880.078125 0)"/>
      <use xlink:href="#DejaVuSans-35" transform="translate(911.859375 0)"/>
      <use xlink:href="#DejaVuSans-48" transform="translate(976.859375 0)"/>
      <use xlink:href="#DejaVuSans-24" transform="translate(1038.390625 0)"/>
      <use xlink:href="#DejaVuSans-46" transform="translate(1105.046875 0)"/>
      <use xlink:href="#DejaVuSans-57" transform="translate(1160.03125 0)"/>
      <use xlink:href="#DejaVuSans-3" transform="translate(1199.234375 0)"/>
      <use xlink:href="#DejaVuSans-46" transform="translate(1231.015625 0)"/>
      <use xlink:href="#DejaVuSans-52" transform="translate(1286 0)"/>
      <use xlink:href="#DejaVuSans-55" transform="translate(1347.1875 0)"/>
      <use xlink:href="#DejaVuSans-55" transform="translate(1386.546875 0)"/>
      <use xlink:href="#DejaVuSans-48" transform="translate(1425.453125 0)"/>
      <use xlink:href="#DejaVuSans-46" transform="translate(1486.984375 0)"/>
      <use xlink:href="#DejaVuSans-57" transform="translate(1541.96875 0)"/>
     </g>
    </g>
   </g>
  </g>
 </g>
 <defs>
  <clipPath id="pd6d52ce79e">
   <rect x="65.654687" y="37.837812" width="585.9" height="255.024"/>
  </clipPath>
 </defs>
</svg>
